<mxfile host="Electron" modified="2024-11-07T06:37:28.125Z" agent="Mozilla/5.0 (Windows NT 10.0; Win64; x64) AppleWebKit/537.36 (KHTML, like Gecko) draw.io/24.2.5 Chrome/120.0.6099.109 Electron/28.1.0 Safari/537.36" etag="sF7YxyOF6ounIavgy_pe" version="24.2.5" type="device">
  <diagram name="Page-1" id="fapyUFA1WzPESnKfKPGh">
    <mxGraphModel dx="1405" dy="872" grid="1" gridSize="10" guides="1" tooltips="1" connect="1" arrows="1" fold="1" page="0" pageScale="1" pageWidth="850" pageHeight="1100" math="0" shadow="0">
      <root>
        <mxCell id="0" />
        <mxCell id="1" parent="0" />
        <mxCell id="wpjqSPbUbbXMvBfUG91C-6" value="" style="edgeStyle=orthogonalEdgeStyle;rounded=0;orthogonalLoop=1;jettySize=auto;html=1;" edge="1" parent="1" source="wpjqSPbUbbXMvBfUG91C-1" target="wpjqSPbUbbXMvBfUG91C-3">
          <mxGeometry relative="1" as="geometry" />
        </mxCell>
        <mxCell id="wpjqSPbUbbXMvBfUG91C-1" value="BEGIN Main LOOP" style="ellipse;whiteSpace=wrap;html=1;" vertex="1" parent="1">
          <mxGeometry x="320" y="40" width="120" height="80" as="geometry" />
        </mxCell>
        <mxCell id="wpjqSPbUbbXMvBfUG91C-7" value="" style="edgeStyle=orthogonalEdgeStyle;rounded=0;orthogonalLoop=1;jettySize=auto;html=1;" edge="1" parent="1" source="wpjqSPbUbbXMvBfUG91C-3" target="wpjqSPbUbbXMvBfUG91C-5">
          <mxGeometry relative="1" as="geometry" />
        </mxCell>
        <mxCell id="wpjqSPbUbbXMvBfUG91C-3" value="waitForInput" style="shape=process;whiteSpace=wrap;html=1;backgroundOutline=1;" vertex="1" parent="1">
          <mxGeometry x="320" y="160" width="120" height="40" as="geometry" />
        </mxCell>
        <mxCell id="wpjqSPbUbbXMvBfUG91C-17" style="edgeStyle=orthogonalEdgeStyle;rounded=0;orthogonalLoop=1;jettySize=auto;html=1;exitX=0.5;exitY=1;exitDx=0;exitDy=0;entryX=0.5;entryY=0;entryDx=0;entryDy=0;" edge="1" parent="1" source="wpjqSPbUbbXMvBfUG91C-5" target="wpjqSPbUbbXMvBfUG91C-3">
          <mxGeometry relative="1" as="geometry">
            <Array as="points">
              <mxPoint x="380" y="300" />
              <mxPoint x="300" y="300" />
              <mxPoint x="300" y="140" />
              <mxPoint x="380" y="140" />
            </Array>
          </mxGeometry>
        </mxCell>
        <mxCell id="wpjqSPbUbbXMvBfUG91C-5" value="playGame" style="shape=process;whiteSpace=wrap;html=1;backgroundOutline=1;" vertex="1" parent="1">
          <mxGeometry x="320" y="240" width="120" height="40" as="geometry" />
        </mxCell>
        <mxCell id="wpjqSPbUbbXMvBfUG91C-12" value="" style="edgeStyle=orthogonalEdgeStyle;rounded=0;orthogonalLoop=1;jettySize=auto;html=1;" edge="1" parent="1" source="wpjqSPbUbbXMvBfUG91C-9" target="wpjqSPbUbbXMvBfUG91C-10">
          <mxGeometry relative="1" as="geometry" />
        </mxCell>
        <mxCell id="wpjqSPbUbbXMvBfUG91C-9" value="BEGIN waitForInput" style="ellipse;whiteSpace=wrap;html=1;" vertex="1" parent="1">
          <mxGeometry x="520" y="40" width="120" height="80" as="geometry" />
        </mxCell>
        <mxCell id="wpjqSPbUbbXMvBfUG91C-13" style="edgeStyle=orthogonalEdgeStyle;rounded=0;orthogonalLoop=1;jettySize=auto;html=1;exitX=1;exitY=0.5;exitDx=0;exitDy=0;entryX=0.5;entryY=0;entryDx=0;entryDy=0;" edge="1" parent="1" source="wpjqSPbUbbXMvBfUG91C-10" target="wpjqSPbUbbXMvBfUG91C-11">
          <mxGeometry relative="1" as="geometry" />
        </mxCell>
        <mxCell id="wpjqSPbUbbXMvBfUG91C-14" value="Y" style="edgeLabel;html=1;align=center;verticalAlign=middle;resizable=0;points=[];" vertex="1" connectable="0" parent="wpjqSPbUbbXMvBfUG91C-13">
          <mxGeometry x="-0.5" y="2" relative="1" as="geometry">
            <mxPoint as="offset" />
          </mxGeometry>
        </mxCell>
        <mxCell id="wpjqSPbUbbXMvBfUG91C-10" value="Input?" style="rhombus;whiteSpace=wrap;html=1;" vertex="1" parent="1">
          <mxGeometry x="540" y="160" width="80" height="80" as="geometry" />
        </mxCell>
        <mxCell id="wpjqSPbUbbXMvBfUG91C-11" value="END waitForInput" style="ellipse;whiteSpace=wrap;html=1;" vertex="1" parent="1">
          <mxGeometry x="520" y="280" width="120" height="80" as="geometry" />
        </mxCell>
        <mxCell id="wpjqSPbUbbXMvBfUG91C-15" style="edgeStyle=orthogonalEdgeStyle;rounded=0;orthogonalLoop=1;jettySize=auto;html=1;exitX=0;exitY=0.5;exitDx=0;exitDy=0;entryX=0.5;entryY=0;entryDx=0;entryDy=0;" edge="1" parent="1" source="wpjqSPbUbbXMvBfUG91C-10" target="wpjqSPbUbbXMvBfUG91C-10">
          <mxGeometry relative="1" as="geometry">
            <Array as="points">
              <mxPoint x="520" y="200" />
              <mxPoint x="520" y="140" />
              <mxPoint x="580" y="140" />
            </Array>
          </mxGeometry>
        </mxCell>
        <mxCell id="wpjqSPbUbbXMvBfUG91C-16" value="N" style="edgeLabel;html=1;align=center;verticalAlign=middle;resizable=0;points=[];" vertex="1" connectable="0" parent="wpjqSPbUbbXMvBfUG91C-15">
          <mxGeometry x="-0.375" y="3" relative="1" as="geometry">
            <mxPoint as="offset" />
          </mxGeometry>
        </mxCell>
        <mxCell id="wpjqSPbUbbXMvBfUG91C-27" value="" style="edgeStyle=orthogonalEdgeStyle;rounded=0;orthogonalLoop=1;jettySize=auto;html=1;" edge="1" parent="1" source="wpjqSPbUbbXMvBfUG91C-18" target="wpjqSPbUbbXMvBfUG91C-19">
          <mxGeometry relative="1" as="geometry" />
        </mxCell>
        <mxCell id="wpjqSPbUbbXMvBfUG91C-18" value="BEGIN playGame" style="ellipse;whiteSpace=wrap;html=1;" vertex="1" parent="1">
          <mxGeometry x="720" y="40" width="120" height="80" as="geometry" />
        </mxCell>
        <mxCell id="wpjqSPbUbbXMvBfUG91C-28" value="" style="edgeStyle=orthogonalEdgeStyle;rounded=0;orthogonalLoop=1;jettySize=auto;html=1;" edge="1" parent="1" source="wpjqSPbUbbXMvBfUG91C-19" target="wpjqSPbUbbXMvBfUG91C-23">
          <mxGeometry relative="1" as="geometry" />
        </mxCell>
        <mxCell id="wpjqSPbUbbXMvBfUG91C-19" value="createSequence" style="shape=process;whiteSpace=wrap;html=1;backgroundOutline=1;" vertex="1" parent="1">
          <mxGeometry x="720" y="160" width="120" height="40" as="geometry" />
        </mxCell>
        <mxCell id="wpjqSPbUbbXMvBfUG91C-49" value="" style="edgeStyle=orthogonalEdgeStyle;rounded=0;orthogonalLoop=1;jettySize=auto;html=1;" edge="1" parent="1" source="wpjqSPbUbbXMvBfUG91C-21" target="wpjqSPbUbbXMvBfUG91C-39">
          <mxGeometry relative="1" as="geometry" />
        </mxCell>
        <mxCell id="wpjqSPbUbbXMvBfUG91C-21" value="playerTurn" style="shape=process;whiteSpace=wrap;html=1;backgroundOutline=1;" vertex="1" parent="1">
          <mxGeometry x="720" y="320" width="120" height="40" as="geometry" />
        </mxCell>
        <mxCell id="wpjqSPbUbbXMvBfUG91C-48" value="" style="edgeStyle=orthogonalEdgeStyle;rounded=0;orthogonalLoop=1;jettySize=auto;html=1;" edge="1" parent="1" source="wpjqSPbUbbXMvBfUG91C-23" target="wpjqSPbUbbXMvBfUG91C-21">
          <mxGeometry relative="1" as="geometry" />
        </mxCell>
        <mxCell id="wpjqSPbUbbXMvBfUG91C-23" value="flashLights" style="shape=process;whiteSpace=wrap;html=1;backgroundOutline=1;" vertex="1" parent="1">
          <mxGeometry x="720" y="240" width="120" height="40" as="geometry" />
        </mxCell>
        <mxCell id="wpjqSPbUbbXMvBfUG91C-41" style="edgeStyle=orthogonalEdgeStyle;rounded=0;orthogonalLoop=1;jettySize=auto;html=1;exitX=1;exitY=0.5;exitDx=0;exitDy=0;entryX=0.5;entryY=0;entryDx=0;entryDy=0;" edge="1" parent="1" source="wpjqSPbUbbXMvBfUG91C-39" target="wpjqSPbUbbXMvBfUG91C-40">
          <mxGeometry relative="1" as="geometry" />
        </mxCell>
        <mxCell id="wpjqSPbUbbXMvBfUG91C-47" value="Y" style="edgeLabel;html=1;align=center;verticalAlign=middle;resizable=0;points=[];" vertex="1" connectable="0" parent="wpjqSPbUbbXMvBfUG91C-41">
          <mxGeometry x="0.0667" y="2" relative="1" as="geometry">
            <mxPoint as="offset" />
          </mxGeometry>
        </mxCell>
        <mxCell id="wpjqSPbUbbXMvBfUG91C-44" style="edgeStyle=orthogonalEdgeStyle;rounded=0;orthogonalLoop=1;jettySize=auto;html=1;exitX=0;exitY=0.5;exitDx=0;exitDy=0;" edge="1" parent="1" source="wpjqSPbUbbXMvBfUG91C-39" target="wpjqSPbUbbXMvBfUG91C-43">
          <mxGeometry relative="1" as="geometry" />
        </mxCell>
        <mxCell id="wpjqSPbUbbXMvBfUG91C-45" value="N" style="edgeLabel;html=1;align=center;verticalAlign=middle;resizable=0;points=[];" vertex="1" connectable="0" parent="wpjqSPbUbbXMvBfUG91C-44">
          <mxGeometry x="0.35" y="2" relative="1" as="geometry">
            <mxPoint as="offset" />
          </mxGeometry>
        </mxCell>
        <mxCell id="wpjqSPbUbbXMvBfUG91C-39" value="guess correct?" style="rhombus;whiteSpace=wrap;html=1;" vertex="1" parent="1">
          <mxGeometry x="740" y="400" width="80" height="80" as="geometry" />
        </mxCell>
        <mxCell id="wpjqSPbUbbXMvBfUG91C-52" style="edgeStyle=orthogonalEdgeStyle;rounded=0;orthogonalLoop=1;jettySize=auto;html=1;exitX=1;exitY=0.5;exitDx=0;exitDy=0;entryX=0.5;entryY=0;entryDx=0;entryDy=0;" edge="1" parent="1" source="wpjqSPbUbbXMvBfUG91C-40" target="wpjqSPbUbbXMvBfUG91C-21">
          <mxGeometry relative="1" as="geometry" />
        </mxCell>
        <mxCell id="wpjqSPbUbbXMvBfUG91C-53" value="N" style="edgeLabel;html=1;align=center;verticalAlign=middle;resizable=0;points=[];" vertex="1" connectable="0" parent="wpjqSPbUbbXMvBfUG91C-52">
          <mxGeometry x="-0.7922" relative="1" as="geometry">
            <mxPoint as="offset" />
          </mxGeometry>
        </mxCell>
        <mxCell id="wpjqSPbUbbXMvBfUG91C-58" value="" style="edgeStyle=orthogonalEdgeStyle;rounded=0;orthogonalLoop=1;jettySize=auto;html=1;" edge="1" parent="1" source="wpjqSPbUbbXMvBfUG91C-40" target="wpjqSPbUbbXMvBfUG91C-57">
          <mxGeometry relative="1" as="geometry" />
        </mxCell>
        <mxCell id="wpjqSPbUbbXMvBfUG91C-60" value="Y" style="edgeLabel;html=1;align=center;verticalAlign=middle;resizable=0;points=[];" vertex="1" connectable="0" parent="wpjqSPbUbbXMvBfUG91C-58">
          <mxGeometry x="-0.45" y="-1" relative="1" as="geometry">
            <mxPoint as="offset" />
          </mxGeometry>
        </mxCell>
        <mxCell id="wpjqSPbUbbXMvBfUG91C-40" value="end of&lt;div&gt;turn?&lt;/div&gt;" style="rhombus;whiteSpace=wrap;html=1;" vertex="1" parent="1">
          <mxGeometry x="800" y="480" width="80" height="80" as="geometry" />
        </mxCell>
        <mxCell id="wpjqSPbUbbXMvBfUG91C-62" style="edgeStyle=orthogonalEdgeStyle;rounded=0;orthogonalLoop=1;jettySize=auto;html=1;exitX=0.5;exitY=1;exitDx=0;exitDy=0;entryX=0.5;entryY=0;entryDx=0;entryDy=0;" edge="1" parent="1" source="wpjqSPbUbbXMvBfUG91C-43" target="wpjqSPbUbbXMvBfUG91C-61">
          <mxGeometry relative="1" as="geometry" />
        </mxCell>
        <mxCell id="wpjqSPbUbbXMvBfUG91C-43" value="endGame" style="shape=process;whiteSpace=wrap;html=1;backgroundOutline=1;" vertex="1" parent="1">
          <mxGeometry x="640" y="480" width="120" height="40" as="geometry" />
        </mxCell>
        <mxCell id="wpjqSPbUbbXMvBfUG91C-59" style="edgeStyle=orthogonalEdgeStyle;rounded=0;orthogonalLoop=1;jettySize=auto;html=1;exitX=0.5;exitY=1;exitDx=0;exitDy=0;entryX=0.5;entryY=0;entryDx=0;entryDy=0;" edge="1" parent="1" source="wpjqSPbUbbXMvBfUG91C-57" target="wpjqSPbUbbXMvBfUG91C-19">
          <mxGeometry relative="1" as="geometry">
            <Array as="points">
              <mxPoint x="840" y="660" />
              <mxPoint x="920" y="660" />
              <mxPoint x="920" y="140" />
              <mxPoint x="780" y="140" />
            </Array>
          </mxGeometry>
        </mxCell>
        <mxCell id="wpjqSPbUbbXMvBfUG91C-57" value="flashLights" style="shape=process;whiteSpace=wrap;html=1;backgroundOutline=1;" vertex="1" parent="1">
          <mxGeometry x="780" y="600" width="120" height="40" as="geometry" />
        </mxCell>
        <mxCell id="wpjqSPbUbbXMvBfUG91C-61" value="END playGame" style="ellipse;whiteSpace=wrap;html=1;" vertex="1" parent="1">
          <mxGeometry x="720" y="720" width="120" height="80" as="geometry" />
        </mxCell>
      </root>
    </mxGraphModel>
  </diagram>
</mxfile>
